<svg width="18" height="18" viewBox="0 0 18 18" fill="none" xmlns="http://www.w3.org/2000/svg">
<path opacity="0.25" d="M17.1224 11.0856C16.9515 10.8216 16.7087 10.5576 16.394 10.3904C16.1421 10.2672 15.9803 10.0648 15.8364 9.82715C15.3777 9.07035 15.6475 8.07595 16.4119 7.62715C17.3113 7.12555 17.599 6.00795 17.0774 5.13675L16.4749 4.09835C15.9623 3.22715 14.8381 2.91915 13.9478 3.42955C13.1564 3.85195 12.1402 3.57035 11.6815 2.82235C11.5376 2.57595 11.4567 2.31195 11.4747 2.04795C11.5016 1.70475 11.3937 1.37915 11.2318 1.11515C10.8991 0.569551 10.2966 0.199951 9.63105 0.199951H8.36301C7.7065 0.217551 7.10396 0.569551 6.77121 1.11515C6.60033 1.37915 6.50141 1.70475 6.5194 2.04795C6.53738 2.31195 6.45644 2.57595 6.31255 2.82235C5.8539 3.57035 4.83766 3.85195 4.05525 3.42955C3.15593 2.91915 2.04077 3.22715 1.51916 4.09835L0.916616 5.13675C0.404003 6.00795 0.691786 7.12555 1.58212 7.62715C2.34654 8.07595 2.61634 9.07035 2.16667 9.82715C2.01379 10.0648 1.85191 10.2672 1.6001 10.3904C1.29433 10.5576 1.02454 10.8216 0.880644 11.0856C0.547894 11.6312 0.565881 12.3176 0.89863 12.8896L1.51916 13.9456C1.85191 14.5088 2.47244 14.8607 3.11996 14.8607C3.42573 14.8607 3.78546 14.7728 4.07324 14.5968C4.29807 14.4472 4.56787 14.3943 4.86464 14.3943C5.75497 14.3943 6.50141 15.1248 6.5194 15.996C6.5194 17.008 7.34677 17.7999 8.38999 17.7999H9.61307C10.6473 17.7999 11.4747 17.008 11.4747 15.996C11.5016 15.1248 12.2481 14.3943 13.1384 14.3943C13.4262 14.3943 13.696 14.4472 13.9298 14.5968C14.2176 14.7728 14.5683 14.8607 14.8831 14.8607C15.5216 14.8607 16.1421 14.5088 16.4749 13.9456L17.1044 12.8896C17.4282 12.3 17.4552 11.6312 17.1224 11.0856Z" fill="#1A1926"/>
</svg>
