<svg width="18" height="18" viewBox="0 0 18 18" fill="none" xmlns="http://www.w3.org/2000/svg">
<path opacity="0.25" d="M17.1224 11.0858C16.9515 10.8218 16.7087 10.5578 16.394 10.3906C16.1421 10.2674 15.9803 10.065 15.8364 9.82739C15.3777 9.07059 15.6475 8.07619 16.4119 7.62739C17.3113 7.12579 17.599 6.0082 17.0774 5.137L16.4749 4.09859C15.9623 3.22739 14.8381 2.9194 13.9478 3.4298C13.1564 3.8522 12.1402 3.5706 11.6815 2.8226C11.5376 2.5762 11.4567 2.3122 11.4747 2.0482C11.5016 1.705 11.3937 1.3794 11.2318 1.1154C10.8991 0.569795 10.2966 0.200195 9.63105 0.200195H8.36301C7.7065 0.217795 7.10396 0.569795 6.77121 1.1154C6.60033 1.3794 6.50141 1.705 6.5194 2.0482C6.53738 2.3122 6.45644 2.5762 6.31255 2.8226C5.8539 3.5706 4.83766 3.8522 4.05525 3.4298C3.15593 2.9194 2.04077 3.22739 1.51916 4.09859L0.916616 5.137C0.404003 6.0082 0.691786 7.12579 1.58212 7.62739C2.34654 8.07619 2.61634 9.07059 2.16667 9.82739C2.01379 10.065 1.85191 10.2674 1.6001 10.3906C1.29433 10.5578 1.02454 10.8218 0.880644 11.0858C0.547894 11.6314 0.565881 12.3178 0.89863 12.8898L1.51916 13.9458C1.85191 14.509 2.47244 14.861 3.11996 14.861C3.42573 14.861 3.78546 14.773 4.07324 14.597C4.29807 14.4474 4.56787 14.3946 4.86464 14.3946C5.75497 14.3946 6.50141 15.125 6.5194 15.9962C6.5194 17.0082 7.34677 17.8002 8.38999 17.8002H9.61307C10.6473 17.8002 11.4747 17.0082 11.4747 15.9962C11.5016 15.125 12.2481 14.3946 13.1384 14.3946C13.4262 14.3946 13.696 14.4474 13.9298 14.597C14.2176 14.773 14.5683 14.861 14.8831 14.861C15.5216 14.861 16.1421 14.509 16.4749 13.9458L17.1044 12.8898C17.4282 12.3002 17.4552 11.6314 17.1224 11.0858Z" fill="#E8E8E8"/>
</svg>
